<?xml version="1.0" encoding="UTF-8"?> <svg xmlns="http://www.w3.org/2000/svg" xmlns:xlink="http://www.w3.org/1999/xlink" id="Layer_2" data-name="Layer 2" viewBox="0 0 800 400"><defs><style>.cls-1,.cls-5,.cls-6,.cls-9{fill:none;}.cls-2{clip-path:url(#clip-path);}.cls-3{clip-path:url(#clip-path-2);}.cls-12,.cls-4{fill:#fff;}.cls-5{stroke:red;}.cls-12,.cls-13,.cls-14,.cls-15,.cls-16,.cls-5,.cls-6{stroke-width:6px;}.cls-12,.cls-13,.cls-14,.cls-15,.cls-16,.cls-6,.cls-9{stroke:#000;}.cls-7{fill:url(#New_Pattern_Swatch_2);}.cls-8{fill:red;}.cls-9{stroke-width:4px;}.cls-10{fill:url(#New_Pattern_Swatch_1);}.cls-11{fill:url(#New_Pattern_Swatch_5-25);}.cls-13{fill:url(#New_Pattern_Swatch_1-35);}.cls-14{fill:url(#New_Pattern_Swatch_5-25-7);}.cls-15{fill:url(#New_Pattern_Swatch_2-11);}.cls-16{fill:url(#New_Pattern_Swatch_5-25-9);}</style><clipPath id="clip-path"><rect class="cls-1" width="4" height="4"></rect></clipPath><clipPath id="clip-path-2"><rect class="cls-1" width="3" height="3"></rect></clipPath><pattern id="New_Pattern_Swatch_2" data-name="New Pattern Swatch 2" width="3" height="3" patternTransform="translate(6.37 -12.25)" patternUnits="userSpaceOnUse" viewBox="0 0 3 3"><rect class="cls-1" width="3" height="3"></rect><g class="cls-3"><path d="M3,.5H3A.5.5,0,0,0,3.5,0h0A.5.5,0,0,0,3-.5H3a.5.5,0,0,0-.5.5h0A.5.5,0,0,0,3,.5Z"></path><path d="M1.5,2h0A.5.5,0,0,0,2,1.5H2A.5.5,0,0,0,1.5,1h0a.5.5,0,0,0-.5.5H1A.5.5,0,0,0,1.5,2Z"></path><path d="M0,.5H0A.5.5,0,0,0,.5,0h0A.5.5,0,0,0,0-.5H0A.5.5,0,0,0-.5,0h0A.5.5,0,0,0,0,.5Z"></path><path d="M3,2.5H3a.5.5,0,0,1,.5.5h0a.5.5,0,0,1-.5.5H3A.5.5,0,0,1,2.5,3h0A.5.5,0,0,1,3,2.5Z"></path><path d="M0,2.5H0A.5.5,0,0,1,.5,3h0a.5.5,0,0,1-.5.5H0A.5.5,0,0,1-.5,3h0A.5.5,0,0,1,0,2.5Z"></path></g></pattern><pattern id="New_Pattern_Swatch_1" data-name="New Pattern Swatch 1" width="4" height="4" patternTransform="translate(9.37 -3.25)" patternUnits="userSpaceOnUse" viewBox="0 0 4 4"><rect class="cls-1" width="4" height="4"></rect><g class="cls-2"><path d="M4,.5H4A.5.5,0,0,0,4.5,0h0A.5.5,0,0,0,4-.5H4a.5.5,0,0,0-.5.5h0A.5.5,0,0,0,4,.5Z"></path><path d="M2,2.5H2A.5.5,0,0,0,2.5,2h0A.5.5,0,0,0,2,1.5H2a.5.5,0,0,0-.5.5h0A.5.5,0,0,0,2,2.5Z"></path><path d="M0,4.5H0A.5.5,0,0,0,.5,4h0A.5.5,0,0,0,0,3.5H0A.5.5,0,0,0-.5,4h0A.5.5,0,0,0,0,4.5Z"></path><path d="M0,.5H0A.5.5,0,0,0,.5,0h0A.5.5,0,0,0,0-.5H0A.5.5,0,0,0-.5,0h0A.5.5,0,0,0,0,.5Z"></path><path d="M4,4.5H4A.5.5,0,0,0,4.5,4h0A.5.5,0,0,0,4,3.5H4a.5.5,0,0,0-.5.5h0A.5.5,0,0,0,4,4.5Z"></path></g></pattern><pattern id="New_Pattern_Swatch_5-25" data-name="New Pattern Swatch 5-25" width="2" height="2" patternTransform="translate(3.37 -5.25)" patternUnits="userSpaceOnUse" viewBox="0 0 2 2"><rect class="cls-1" width="2" height="2"></rect><rect class="cls-1" width="2" height="2"></rect><path d="M2,.5H2A.5.5,0,0,0,2.5,0h0A.5.5,0,0,0,2-.5H2a.5.5,0,0,0-.5.5h0A.5.5,0,0,0,2,.5Z"></path><path d="M2,.5H2A.5.5,0,0,0,2.5,0h0A.5.5,0,0,0,2-.5H2a.5.5,0,0,0-.5.5h0A.5.5,0,0,0,2,.5Z"></path><path d="M0,.5H0A.5.5,0,0,0,.5,0h0A.5.5,0,0,0,0-.5H0A.5.5,0,0,0-.5,0h0A.5.5,0,0,0,0,.5Z"></path><path d="M0,.5H0A.5.5,0,0,0,.5,0h0A.5.5,0,0,0,0-.5H0A.5.5,0,0,0-.5,0h0A.5.5,0,0,0,0,.5Z"></path><path d="M2,2.5H2A.5.5,0,0,0,2.5,2h0A.5.5,0,0,0,2,1.5H2a.5.5,0,0,0-.5.5h0A.5.5,0,0,0,2,2.5Z"></path><path d="M2,.5H2A.5.5,0,0,0,2.5,0h0A.5.5,0,0,0,2-.5H2a.5.5,0,0,0-.5.5h0A.5.5,0,0,0,2,.5Z"></path><path d="M1,1.5H1A.5.5,0,0,0,1.5,1h0A.5.5,0,0,0,1,.5H1A.5.5,0,0,0,.5,1h0A.5.5,0,0,0,1,1.5Z"></path><path d="M2,2.5H2A.5.5,0,0,0,2.5,2h0A.5.5,0,0,0,2,1.5H2a.5.5,0,0,0-.5.5h0A.5.5,0,0,0,2,2.5Z"></path><path d="M0,2.5H0A.5.5,0,0,0,.5,2h0A.5.5,0,0,0,0,1.5H0A.5.5,0,0,0-.5,2h0A.5.5,0,0,0,0,2.5Z"></path><path d="M0,.5H0A.5.5,0,0,0,.5,0h0A.5.5,0,0,0,0-.5H0A.5.5,0,0,0-.5,0h0A.5.5,0,0,0,0,.5Z"></path><path d="M2,.5H2A.5.5,0,0,0,2.5,0h0A.5.5,0,0,0,2-.5H2a.5.5,0,0,0-.5.5h0A.5.5,0,0,0,2,.5Z"></path><path d="M0,2.5H0A.5.5,0,0,0,.5,2h0A.5.5,0,0,0,0,1.5H0A.5.5,0,0,0-.5,2h0A.5.5,0,0,0,0,2.5Z"></path><path d="M0,.5H0A.5.5,0,0,0,.5,0h0A.5.5,0,0,0,0-.5H0A.5.5,0,0,0-.5,0h0A.5.5,0,0,0,0,.5Z"></path><path d="M2,2.5H2A.5.5,0,0,0,2.5,2h0A.5.5,0,0,0,2,1.5H2a.5.5,0,0,0-.5.5h0A.5.5,0,0,0,2,2.5Z"></path><path d="M0,2.5H0A.5.5,0,0,0,.5,2h0A.5.5,0,0,0,0,1.5H0A.5.5,0,0,0-.5,2h0A.5.5,0,0,0,0,2.5Z"></path><path d="M2,2.5H2A.5.5,0,0,0,2.5,2h0A.5.5,0,0,0,2,1.5H2a.5.5,0,0,0-.5.5h0A.5.5,0,0,0,2,2.5Z"></path><path d="M0,2.5H0A.5.5,0,0,0,.5,2h0A.5.5,0,0,0,0,1.5H0A.5.5,0,0,0-.5,2h0A.5.5,0,0,0,0,2.5Z"></path></pattern><pattern id="New_Pattern_Swatch_1-35" data-name="New Pattern Swatch 1" width="4" height="4" patternTransform="translate(0.79 -7.7)" patternUnits="userSpaceOnUse" viewBox="0 0 4 4"><rect class="cls-1" width="4" height="4"></rect><g class="cls-2"><path d="M4,.5H4A.5.5,0,0,0,4.5,0h0A.5.5,0,0,0,4-.5H4a.5.5,0,0,0-.5.5h0A.5.5,0,0,0,4,.5Z"></path><path d="M2,2.5H2A.5.5,0,0,0,2.5,2h0A.5.5,0,0,0,2,1.5H2a.5.5,0,0,0-.5.5h0A.5.5,0,0,0,2,2.5Z"></path><path d="M0,4.5H0A.5.5,0,0,0,.5,4h0A.5.5,0,0,0,0,3.5H0A.5.5,0,0,0-.5,4h0A.5.5,0,0,0,0,4.5Z"></path><path d="M0,.5H0A.5.5,0,0,0,.5,0h0A.5.5,0,0,0,0-.5H0A.5.5,0,0,0-.5,0h0A.5.5,0,0,0,0,.5Z"></path><path d="M4,4.5H4A.5.5,0,0,0,4.5,4h0A.5.5,0,0,0,4,3.5H4a.5.5,0,0,0-.5.5h0A.5.5,0,0,0,4,4.5Z"></path></g></pattern><pattern id="New_Pattern_Swatch_5-25-7" data-name="New Pattern Swatch 5-25" width="2" height="2" patternTransform="translate(-0.26 -5.39)" patternUnits="userSpaceOnUse" viewBox="0 0 2 2"><rect class="cls-1" width="2" height="2"></rect><rect class="cls-1" width="2" height="2"></rect><path d="M2,.5H2A.5.5,0,0,0,2.5,0h0A.5.5,0,0,0,2-.5H2a.5.5,0,0,0-.5.5h0A.5.5,0,0,0,2,.5Z"></path><path d="M2,.5H2A.5.5,0,0,0,2.5,0h0A.5.5,0,0,0,2-.5H2a.5.5,0,0,0-.5.5h0A.5.5,0,0,0,2,.5Z"></path><path d="M0,.5H0A.5.5,0,0,0,.5,0h0A.5.5,0,0,0,0-.5H0A.5.5,0,0,0-.5,0h0A.5.5,0,0,0,0,.5Z"></path><path d="M0,.5H0A.5.5,0,0,0,.5,0h0A.5.5,0,0,0,0-.5H0A.5.5,0,0,0-.5,0h0A.5.5,0,0,0,0,.5Z"></path><path d="M2,2.5H2A.5.5,0,0,0,2.5,2h0A.5.5,0,0,0,2,1.5H2a.5.5,0,0,0-.5.5h0A.5.5,0,0,0,2,2.5Z"></path><path d="M2,.5H2A.5.5,0,0,0,2.5,0h0A.5.5,0,0,0,2-.5H2a.5.5,0,0,0-.5.5h0A.5.5,0,0,0,2,.5Z"></path><path d="M1,1.5H1A.5.5,0,0,0,1.5,1h0A.5.5,0,0,0,1,.5H1A.5.5,0,0,0,.5,1h0A.5.5,0,0,0,1,1.5Z"></path><path d="M2,2.5H2A.5.5,0,0,0,2.5,2h0A.5.5,0,0,0,2,1.5H2a.5.5,0,0,0-.5.5h0A.5.5,0,0,0,2,2.5Z"></path><path d="M0,2.5H0A.5.5,0,0,0,.5,2h0A.5.5,0,0,0,0,1.5H0A.5.5,0,0,0-.5,2h0A.5.5,0,0,0,0,2.5Z"></path><path d="M0,.5H0A.5.5,0,0,0,.5,0h0A.5.5,0,0,0,0-.5H0A.5.5,0,0,0-.5,0h0A.5.5,0,0,0,0,.5Z"></path><path d="M2,.5H2A.5.5,0,0,0,2.5,0h0A.5.5,0,0,0,2-.5H2a.5.5,0,0,0-.5.5h0A.5.5,0,0,0,2,.5Z"></path><path d="M0,2.5H0A.5.5,0,0,0,.5,2h0A.5.5,0,0,0,0,1.5H0A.5.5,0,0,0-.5,2h0A.5.5,0,0,0,0,2.5Z"></path><path d="M0,.5H0A.5.5,0,0,0,.5,0h0A.5.5,0,0,0,0-.5H0A.5.5,0,0,0-.5,0h0A.5.5,0,0,0,0,.5Z"></path><path d="M2,2.5H2A.5.5,0,0,0,2.5,2h0A.5.5,0,0,0,2,1.5H2a.5.5,0,0,0-.5.5h0A.5.5,0,0,0,2,2.5Z"></path><path d="M0,2.5H0A.5.5,0,0,0,.5,2h0A.5.5,0,0,0,0,1.5H0A.5.5,0,0,0-.5,2h0A.5.5,0,0,0,0,2.5Z"></path><path d="M2,2.5H2A.5.5,0,0,0,2.5,2h0A.5.5,0,0,0,2,1.5H2a.5.5,0,0,0-.5.5h0A.5.5,0,0,0,2,2.5Z"></path><path d="M0,2.5H0A.5.5,0,0,0,.5,2h0A.5.5,0,0,0,0,1.5H0A.5.5,0,0,0-.5,2h0A.5.5,0,0,0,0,2.5Z"></path></pattern><pattern id="New_Pattern_Swatch_2-11" data-name="New Pattern Swatch 2" width="3" height="3" patternTransform="translate(-0.21 -8.7)" patternUnits="userSpaceOnUse" viewBox="0 0 3 3"><rect class="cls-1" width="3" height="3"></rect><g class="cls-3"><path d="M3,.5H3A.5.5,0,0,0,3.5,0h0A.5.5,0,0,0,3-.5H3a.5.5,0,0,0-.5.5h0A.5.5,0,0,0,3,.5Z"></path><path d="M1.5,2h0A.5.5,0,0,0,2,1.5H2A.5.5,0,0,0,1.5,1h0a.5.5,0,0,0-.5.5H1A.5.5,0,0,0,1.5,2Z"></path><path d="M0,.5H0A.5.5,0,0,0,.5,0h0A.5.5,0,0,0,0-.5H0A.5.5,0,0,0-.5,0h0A.5.5,0,0,0,0,.5Z"></path><path d="M3,2.5H3a.5.5,0,0,1,.5.5h0a.5.5,0,0,1-.5.5H3A.5.5,0,0,1,2.5,3h0A.5.5,0,0,1,3,2.5Z"></path><path d="M0,2.5H0A.5.5,0,0,1,.5,3h0a.5.5,0,0,1-.5.5H0A.5.5,0,0,1-.5,3h0A.5.5,0,0,1,0,2.5Z"></path></g></pattern><pattern id="New_Pattern_Swatch_5-25-9" data-name="New Pattern Swatch 5-25" width="2" height="2" patternTransform="translate(0.79 -3.7)" patternUnits="userSpaceOnUse" viewBox="0 0 2 2"><rect class="cls-1" width="2" height="2"></rect><rect class="cls-1" width="2" height="2"></rect><path d="M2,.5H2A.5.5,0,0,0,2.5,0h0A.5.5,0,0,0,2-.5H2a.5.5,0,0,0-.5.5h0A.5.5,0,0,0,2,.5Z"></path><path d="M2,.5H2A.5.5,0,0,0,2.5,0h0A.5.5,0,0,0,2-.5H2a.5.5,0,0,0-.5.5h0A.5.5,0,0,0,2,.5Z"></path><path d="M0,.5H0A.5.5,0,0,0,.5,0h0A.5.5,0,0,0,0-.5H0A.5.5,0,0,0-.5,0h0A.5.5,0,0,0,0,.5Z"></path><path d="M0,.5H0A.5.5,0,0,0,.5,0h0A.5.5,0,0,0,0-.5H0A.5.5,0,0,0-.5,0h0A.5.5,0,0,0,0,.5Z"></path><path d="M2,2.5H2A.5.5,0,0,0,2.5,2h0A.5.5,0,0,0,2,1.5H2a.5.5,0,0,0-.5.5h0A.5.5,0,0,0,2,2.5Z"></path><path d="M2,.5H2A.5.5,0,0,0,2.5,0h0A.5.5,0,0,0,2-.5H2a.5.5,0,0,0-.5.5h0A.5.5,0,0,0,2,.5Z"></path><path d="M1,1.5H1A.5.5,0,0,0,1.5,1h0A.5.5,0,0,0,1,.5H1A.5.5,0,0,0,.5,1h0A.5.5,0,0,0,1,1.5Z"></path><path d="M2,2.5H2A.5.5,0,0,0,2.5,2h0A.5.5,0,0,0,2,1.5H2a.5.5,0,0,0-.5.5h0A.5.5,0,0,0,2,2.5Z"></path><path d="M0,2.5H0A.5.5,0,0,0,.5,2h0A.5.5,0,0,0,0,1.5H0A.5.5,0,0,0-.5,2h0A.5.5,0,0,0,0,2.5Z"></path><path d="M0,.5H0A.5.5,0,0,0,.5,0h0A.5.5,0,0,0,0-.5H0A.5.5,0,0,0-.5,0h0A.5.5,0,0,0,0,.5Z"></path><path d="M2,.5H2A.5.5,0,0,0,2.5,0h0A.5.5,0,0,0,2-.5H2a.5.5,0,0,0-.5.5h0A.5.5,0,0,0,2,.5Z"></path><path d="M0,2.5H0A.5.5,0,0,0,.5,2h0A.5.5,0,0,0,0,1.5H0A.5.5,0,0,0-.5,2h0A.5.5,0,0,0,0,2.5Z"></path><path d="M0,.5H0A.5.5,0,0,0,.5,0h0A.5.5,0,0,0,0-.5H0A.5.5,0,0,0-.5,0h0A.5.5,0,0,0,0,.5Z"></path><path d="M2,2.5H2A.5.5,0,0,0,2.5,2h0A.5.5,0,0,0,2,1.5H2a.5.5,0,0,0-.5.5h0A.5.5,0,0,0,2,2.5Z"></path><path d="M0,2.5H0A.5.5,0,0,0,.5,2h0A.5.5,0,0,0,0,1.5H0A.5.5,0,0,0-.5,2h0A.5.5,0,0,0,0,2.5Z"></path><path d="M2,2.5H2A.5.5,0,0,0,2.5,2h0A.5.5,0,0,0,2,1.5H2a.5.5,0,0,0-.5.5h0A.5.5,0,0,0,2,2.5Z"></path><path d="M0,2.5H0A.5.5,0,0,0,.5,2h0A.5.5,0,0,0,0,1.5H0A.5.5,0,0,0-.5,2h0A.5.5,0,0,0,0,2.5Z"></path></pattern></defs><rect class="cls-4" width="800" height="400"></rect><polyline class="cls-5" points="493.04 184.51 492.23 227.47 500.3 252.16"></polyline><polyline class="cls-6" points="609.34 183.87 564.62 231.59 533.28 252.13 500.01 251.29 498.28 251.24"></polyline><path class="cls-6" d="M637.71,176.21s-42.55,51.94-52.21,58.55-30.26,19.58-30.26,19.58l-20,7.2-21.56-1.88"></path><line class="cls-6" x1="512.94" y1="326.4" x2="522.41" y2="296.88"></line><line class="cls-6" x1="546.21" y1="331.08" x2="559.55" y2="286.58"></line><path class="cls-7" d="M601.38,315l-.67.07-37.58,3.3-16.92,12.76-33.27-4.68a109.22,109.22,0,0,1-18.4-9.73h0c-6.53-4.57-12.73-16.52-16.42-24.75,2.43-10.69,9.41-23.54,15.16-32.89l26.14,11.81,51.69-.73,1.22,0,3.41,7.43,6.07,4.2,7.24,1.33,6.78-1.9,2.09-.36.34,3.37,2.84,28Z"></path><polygon class="cls-7" points="603.49 269.14 605.7 269.46 601.38 275.94 603.49 269.14"></polygon><path class="cls-6" d="M499.1,273.53s-12.79,37.49-4.56,43.14a109.65,109.65,0,0,0,18.4,9.73l33.27,4.68,16.92-12.76L601.38,315s11,8.86,17.64,8.69c4.76-.12,32.93-2.13,32.93-2.13l26.86-4.27,7.19-14.8-4.48-14.57"></path><path class="cls-8" d="M577.78,270.68a5.55,5.55,0,0,1-2.94,2.49,5.93,5.93,0,0,1-6.69-1.93,4.4,4.4,0,0,1-.77-3.95c1.58,0,2.55,0,3.37,0a7.66,7.66,0,0,1,2.1.22,9.16,9.16,0,0,1,2.14,1A13.55,13.55,0,0,1,577.78,270.68Z"></path><path class="cls-9" d="M534.86,212.73a9.93,9.93,0,1,1-7.83-3.5l-.11-4.08a.39.39,0,0,1,.6-.34l8.73,5.63a.77.77,0,0,1,0,1.28l-7.74,5.54a.83.83,0,0,1-.86.07.86.86,0,0,1-.46-.73l0-1.54a4.09,4.09,0,1,0,2.23,7.57"></path><line class="cls-6" x1="498.14" y1="156.13" x2="466.64" y2="181.39"></line><path class="cls-6" d="M459.48,333.32s-1.25-13.94-.58-22.6,5.26-19.43,8.54-29.85c.5-1.6,1-3.87,1.6-6.61"></path><path class="cls-6" d="M473,247.75c5.42-7.23,13-13.18,19.27-20.28"></path><path class="cls-6" d="M437.75,194s-7.24,22.23-4.8,27.11,12.8,29.56,13.47,33.4"></path><path class="cls-6" d="M432.88,213.27s-6.32,34.77-6,37,9.76,11.48,9.76,11.48l8.93,25.48c22,0,26.16-14.79,27-30.7s0-32.1,0-32.1"></path><polygon class="cls-6" points="435.11 142.8 441.93 138.7 445.42 138.7 451.74 147.76 453.13 157.15 446.42 159.43 435.11 142.8"></polygon><line class="cls-6" x1="451.74" y1="147.76" x2="446.25" y2="150.78"></line><path class="cls-6" d="M435.11,142.8,428.74,148a5,5,0,0,0-.38,7.37l5.09,5.08,3.82,5.25,9.15-6.25"></path><polyline class="cls-6" points="445.42 138.7 453.13 133.49 458.7 134.82 463.55 146.25 463.55 154.24 453.13 157.15"></polyline><path class="cls-6" d="M447.68,175.52a12.8,12.8,0,0,1-6.66,1.64c-5.4-.52-9.84-4-10.94-10.71s-1.72-11.1-1.72-11.1"></path><polyline class="cls-6" points="463.55 149.89 493.18 135.03 498 132.62 504.06 129.58 506 124.86 499.9 112.64 499.51 111.86 490.86 116.39 456.62 134.33"></polyline><path class="cls-6" d="M453.13,133.49v-7.31a8.13,8.13,0,0,1,3.87-5.26c3.22-1.73,5.22-.2,5.22-.2l2.26,9.49"></path><polyline class="cls-6" points="506 124.86 463.55 146.25 452.19 149.78"></polyline><path class="cls-6" d="M479.77,137.32l-3,16a27.24,27.24,0,0,1-21.38,18.58h0"></path><polyline class="cls-6" points="439.68 176.97 441.02 199.89 440.57 212.87"></polyline><line class="cls-6" x1="469.76" y1="204.75" x2="464.91" y2="168.4"></line><path class="cls-6" d="M465.61,174.53s9.24,2.34,7,20.56-23.63,38-23.63,38"></path><path class="cls-6" d="M454.49,229.63s-8.65-7.84-13.92-16.76a26.72,26.72,0,0,1-3.9-10.37,18.43,18.43,0,0,1,.35-6.18,0,0,0,0,1,0,0,16.59,16.59,0,0,1,.71-2.29.08.08,0,0,1,0-.05,17.47,17.47,0,0,1,2.64-4.56"></path><polyline class="cls-6" points="493.27 259.03 519.41 270.84 544.67 278.55"></polyline><line class="cls-6" x1="519.41" y1="270.83" x2="572.58" y2="270.09"></line><path class="cls-10" d="M532.17,74S517.6,88.77,510.3,83.88c0,0-6.94,11.07-10.4,28.76l-.39-.78-8.65,4.53C493,97.92,498.71,84.22,506.4,74a14.55,14.55,0,0,1-.82-4.37,11.49,11.49,0,0,1,.89-4.59s3.54,9.82,24.3,4.84Z"></path><path class="cls-11" d="M671.5,130.59s-5.55,9.66-5.4,26.14c-.22.29-.46.6-.73.92-9-12.52-28.08-12.08-38.42-10.78C649.41,142.57,663.26,136.05,671.5,130.59Z"></path><path class="cls-7" d="M665.37,157.65c-7,8.68-29.24,27.5-86.37,29-48.43,1.25-74.31-12.61-86.27-22.11l.18-.66a.19.19,0,0,1,0-.07c1.57-4.52,8.82-18.45,37.78-15.67h.06c13.29,2.44,29.85,3.85,50.41,3.32a296.35,296.35,0,0,0,38.76-3.35l.09,0q3.56-.56,6.85-1.2H627C637.29,145.57,656.38,145.13,665.37,157.65Z"></path><path class="cls-6" d="M539,51c13.31-4.65,27.07-5.82,38.14-6.11a119.83,119.83,0,0,1,26,2.17"></path><path class="cls-6" d="M490.86,116.39C493,97.92,498.71,84.22,506.4,74"></path><path class="cls-4" d="M536.77,183.36h0a125.46,125.46,0,0,1-23.1-6.86l13.82-10.83Z"></path><path class="cls-4" d="M644.36,173.27a114.78,114.78,0,0,1-23.55,8.26l9.56-19.19Z"></path><path class="cls-6" d="M643.9,66.14c14.74,12.93,25.9,33.18,27.6,64.45,0,0-5.55,9.66-5.4,26.14-6.17,8.19-27.86,28.37-87.1,29.9-48.43,1.25-74.31-12.61-86.27-22.11,3.85-13.4.83-23.68-1.31-28.6"></path><path class="cls-11" d="M530.75,148.13c-29-2.8-36.25,11.14-37.82,15.66,3.54-13,.59-23-1.51-27.87l1.76-.89C501,139.77,512.94,144.87,530.75,148.13Z"></path><path class="cls-6" d="M493.18,135c13.66,8.28,39.89,17.66,88,16.42,51.15-1.33,77.51-12.38,90.32-20.86"></path><path class="cls-6" d="M600.34,56.35s-.78-5.55,2.7-9.22c3.67-3.86,16.7-5,27.66.66,8,4.17,18.92,14.93,10,24.31-6.86,7.22-16.09,2.83-18.18,1.53"></path><path class="cls-12" d="M632.63,36,614.79,48a6.25,6.25,0,0,0-2.41,7.28c.94,2.63,3,5.68,7.65,7.67a21,21,0,0,0,12,1.54,5.07,5.07,0,0,0,4.08-5.78Z"></path><path class="cls-6" d="M509.81,80.15s-4.08-4.69-4.23-10.48c-.14-5.41,4.29-11.49,11-15.42,10.69-6.25,22.78-4.73,26.78-.92,3,2.86,2.78,7.51-3.64,13.58"></path><path class="cls-12" d="M513.08,39.09l-2.31,24.1a4.1,4.1,0,0,0,3.59,4.5c2.67.28,6.72-.09,12.18-2.76s7.72-5.65,8.48-7.86a4.1,4.1,0,0,0-1.67-4.75Z"></path><path class="cls-6" d="M492.7,164.5c1-3.48,7.3-19.35,38.07-16.37"></path><path class="cls-6" d="M619.94,148.1s32.77-8.1,45.44,9.56"></path><polyline class="cls-6" points="513.67 176.51 527.49 165.68 536.77 183.37 536.77 183.38"></polyline><polyline class="cls-6" points="620.81 181.53 630.37 162.34 644.36 173.27"></polyline><polyline class="cls-6" points="493.03 184.51 492.23 227.47 500.3 252.16"></polyline><polyline class="cls-6" points="547.71 185.16 558.19 197.15 567.92 215.18 572.33 223.35"></polyline><polyline class="cls-6" points="567.03 216.22 567.92 215.18 576.6 205.04 592.99 185.88"></polyline><polyline class="cls-6" points="578.16 207.05 576.6 205.04 562.14 186.44"></polyline><line class="cls-6" x1="534.67" y1="102.29" x2="546.91" y2="121.01"></line><line class="cls-6" x1="623.15" y1="98" x2="611.55" y2="116.64"></line><line class="cls-6" x1="634.63" y1="213.74" x2="632.96" y2="191.89"></line><path class="cls-6" d="M636.8,205.54s-10.43,39.75-11.69,42.77c0,0-10,19.22-11.9,22.27"></path><path class="cls-6" d="M640.06,267.09s14.93-14.18,18-24.93"></path><polyline class="cls-6" points="613.21 270.58 609.31 285.12 608.41 295.37 614.89 296.92"></polyline><polygon class="cls-10" points="626.43 299.06 623.98 304.05 618.26 304.2 614 301.16 615.49 297.07 614.88 296.92 608.41 295.37 609.31 285.11 617.43 291.72 617.43 291.73 616.77 293.53 626.43 299.06"></polygon><polyline class="cls-6" points="621.81 279.67 614 301.16 618.26 304.2 623.98 304.05 630.05 291.68"></polyline><path class="cls-6" d="M626.43,299.06l9.24-2.68s7.39-7.46,8.82-12.18c1-3.38,1.78-10.18,2.12-13.75"></path><path class="cls-6" d="M639,291.44s24.82-7,37.84-4.18"></path><path class="cls-6" d="M665.38,157.66l12,26.43s-1,51.83,1.41,57.53"></path><path class="cls-6" d="M668.56,210.11l14.18,43.65-1.23,34.12c-19.32-1.05-35.9-20.93-41.45-20.79s-31.13,3.6-31.13,3.6"></path><polyline class="cls-6" points="528.47 181.45 550.84 213.16 561.07 233.91"></polyline><path class="cls-6" d="M500.53,248c-4.33,6.19-18.7,27.6-22.42,44,3.69,8.23,9.89,20.18,16.42,24.75"></path><line class="cls-6" x1="512.93" y1="326.4" x2="522.41" y2="296.88"></line><path class="cls-11" d="M676,287.09l-.87-.14q-.72-.1-1.47-.18l-.6-.06-.6,0c-1.32-.09-2.7-.12-4.11-.09l-.84,0h-.21l-1.07,0-1.08.07-.87.06-.22,0-1,.08-.18,0-1,.1c-4.22.44-8.44,1.16-12.09,1.89l-1.12.23-.57.12-1,.22-.51.11-1,.22c-1.27.29-2.41.57-3.36.8l-1,.25-.3.08-.53.14-.1,0a24.59,24.59,0,0,0,4.15-6.89c1-3.38,1.78-10.18,2.12-13.75C653.52,275.39,664.05,284.33,676,287.09Z"></path><path class="cls-7" d="M686,302.45l-7.2,14.8-26.86,4.27s-28.16,2-32.92,2.13c-6.66.17-17.64-8.7-17.64-8.7l-3.13-30.79-.34-3.37-2.09.36,5.56-5.21,2.11-6.8,8.11,1.19,1.6.24-3.89,14.54-.9,10.26,7.08,1.7L614,301.16l4.26,3,5.72-.15,2.45-5,9.24-2.68s2.35-2.38,4.67-5.29c5.16-1.37,24.33-6.07,35.69-4l.14,0a32,32,0,0,0,5.34.76Z"></path><path class="cls-6" d="M681.51,287.88,686,302.45l-7.2,14.8-26.86,4.27s-28.16,2-32.92,2.13c-6.66.17-17.64-8.7-17.64-8.7"></path><line class="cls-6" x1="651.94" y1="321.52" x2="644.11" y2="290.15"></line><line class="cls-6" x1="601.38" y1="314.96" x2="598.26" y2="284.16"></line><line class="cls-6" x1="677.39" y1="184.09" x2="667.01" y2="192.54"></line><path d="M585.65,259.66a5.58,5.58,0,0,1-2.5-2.94,5.88,5.88,0,0,1-.14-3.55,5.73,5.73,0,0,1,2.08-3.14,4.4,4.4,0,0,1,3.95-.77c0,1.58,0,2.55,0,3.37a7.27,7.27,0,0,1-.23,2.1,8.76,8.76,0,0,1-.95,2.14A13.8,13.8,0,0,1,585.65,259.66Z"></path><path d="M590.58,260.14a5.59,5.59,0,0,1-.69-3.8,5.86,5.86,0,0,1,1.65-3.14,5.75,5.75,0,0,1,3.37-1.68,4.38,4.38,0,0,1,3.8,1.31c-.82,1.34-1.28,2.19-1.69,2.91a6.87,6.87,0,0,1-1.25,1.7,8,8,0,0,1-1.89,1.38A13.73,13.73,0,0,1,590.58,260.14Z"></path><path d="M594.61,263a5.58,5.58,0,0,1,1.3-3.63,5.91,5.91,0,0,1,3-1.9,5.75,5.75,0,0,1,3.76.23,4.39,4.39,0,0,1,2.64,3c-1.38.75-2.21,1.25-2.92,1.67a7.31,7.31,0,0,1-1.93.85,8.44,8.44,0,0,1-2.33.25A13.68,13.68,0,0,1,594.61,263Z"></path><path d="M596.66,267.53a5.63,5.63,0,0,1,3-2.5,5.93,5.93,0,0,1,3.54-.14,5.75,5.75,0,0,1,3.14,2.08,4.4,4.4,0,0,1,.77,3.95c-1.57,0-2.54,0-3.37,0a7.31,7.31,0,0,1-2.1-.23,8.39,8.39,0,0,1-2.14-.95A14.37,14.37,0,0,1,596.66,267.53Z"></path><path d="M596.18,272.46a5.61,5.61,0,0,1,3.8-.69,5.86,5.86,0,0,1,3.14,1.65,5.75,5.75,0,0,1,1.68,3.37,4.34,4.34,0,0,1-1.31,3.8c-1.34-.82-2.19-1.28-2.91-1.69a7.54,7.54,0,0,1-1.7-1.24,8.89,8.89,0,0,1-1.38-1.89A13.83,13.83,0,0,1,596.18,272.46Z"></path><path d="M593.3,276.49a5.61,5.61,0,0,1,3.64,1.31,5.88,5.88,0,0,1,1.9,3,5.81,5.81,0,0,1-.24,3.76,4.35,4.35,0,0,1-3,2.64c-.75-1.38-1.26-2.21-1.68-2.92a7.5,7.5,0,0,1-.85-1.93,8.4,8.4,0,0,1-.25-2.33A14.26,14.26,0,0,1,593.3,276.49Z"></path><path d="M588.79,278.54a5.63,5.63,0,0,1,2.5,2.95,5.93,5.93,0,0,1,.15,3.54,5.82,5.82,0,0,1-2.09,3.15,4.35,4.35,0,0,1-3.94.76c0-1.57,0-2.54,0-3.36a7.27,7.27,0,0,1,.23-2.1,8.6,8.6,0,0,1,1-2.14A14.09,14.09,0,0,1,588.79,278.54Z"></path><path d="M583.86,278.06a5.61,5.61,0,0,1,.69,3.8A5.89,5.89,0,0,1,582.9,285a5.81,5.81,0,0,1-3.37,1.68,4.41,4.41,0,0,1-3.8-1.31c.82-1.35,1.28-2.2,1.69-2.91a7.13,7.13,0,0,1,1.25-1.71,8.64,8.64,0,0,1,1.89-1.38A14.61,14.61,0,0,1,583.86,278.06Z"></path><path d="M579.83,275.19a5.6,5.6,0,0,1-1.3,3.63,5.91,5.91,0,0,1-3,1.9,5.81,5.81,0,0,1-3.76-.23,4.41,4.41,0,0,1-2.64-3c1.38-.75,2.21-1.26,2.92-1.67a7.35,7.35,0,0,1,1.93-.86,8.84,8.84,0,0,1,2.33-.25A13.77,13.77,0,0,1,579.83,275.19Z"></path><path d="M567.38,267.29c1.57,0,2.54,0,3.36,0a7.73,7.73,0,0,1,2.11.22,8.69,8.69,0,0,1,2.14.94,14.22,14.22,0,0,1,2.79,2.22,5.59,5.59,0,0,1-2.95,2.5,5.85,5.85,0,0,1-3.54.14,5.91,5.91,0,0,1-3.14-2.09A4.39,4.39,0,0,1,567.38,267.29Z"></path><path d="M578.26,265.75a5.6,5.6,0,0,1-3.8.68,5.91,5.91,0,0,1-3.14-1.64,5.75,5.75,0,0,1-1.68-3.38,4.36,4.36,0,0,1,1.31-3.8c1.34.82,2.19,1.29,2.91,1.69a7.64,7.64,0,0,1,1.7,1.25,8.89,8.89,0,0,1,1.38,1.89A13.66,13.66,0,0,1,578.26,265.75Z"></path><path d="M581.14,261.71a5.61,5.61,0,0,1-3.64-1.3,5.82,5.82,0,0,1-1.89-3,5.75,5.75,0,0,1,.23-3.76,4.39,4.39,0,0,1,3-2.64c.76,1.39,1.26,2.21,1.68,2.92a7.55,7.55,0,0,1,.85,1.94,8.32,8.32,0,0,1,.25,2.32A14.14,14.14,0,0,1,581.14,261.71Z"></path><path class="cls-9" d="M631.59,225.18a9.78,9.78,0,0,1-4,1.53A9.92,9.92,0,1,1,625.89,207l-.1-4.08a.39.39,0,0,1,.6-.34l7.77,5"></path><path class="cls-9" d="M634.35,210l-.63.44L627.4,215a.84.84,0,0,1-.85.07.82.82,0,0,1-.46-.73l0-1.54a4.1,4.1,0,0,0-3.39,6.23,4.09,4.09,0,0,0,5.62,1.34"></path><path class="cls-9" d="M634.46,211.48a8.9,8.9,0,0,0-.74-1"></path><path class="cls-6" d="M676.44,182c5.56-3.92,7-8,10.63-25,4.32-20.17,17.76-27.18,32.07-34.6"></path><path class="cls-10" d="M703.6,153.32A83.69,83.69,0,0,0,700.08,170a60.83,60.83,0,0,1-22.7,40.67V184.08l-.94-2.08a15.93,15.93,0,0,0,6.23-8.09,6.38,6.38,0,0,0,7.19,5.73,4,4,0,0,0,1.7-.63c3.52-2.34,4.51-10.61,8.28-22.88A3.48,3.48,0,0,1,703.6,153.32Z"></path><path class="cls-6" d="M677.2,210.81A61,61,0,0,0,700.08,170c3.56-29.84,15.35-36.94,30.21-40.91"></path><path class="cls-6" d="M708.63,128.12l-4.85-9a3.84,3.84,0,0,1,3.23-5.64c14.79-.71,46.08-7.72,46.82-.49.69,6.77-19,27.15-27.59,35.75a4.06,4.06,0,0,1-6.48-1.05l-5.55-11"></path><path class="cls-10" d="M716.79,326.92a21.25,21.25,0,0,1-1.51,7.86,38.61,38.61,0,0,1-23.47,22.35c-2.16.73-4.4,1.41-6.66,2-5.78,1.48-11.67,2.26-16.5,1.4-15.15-2.71-40-2.07-50.73,2.2s-107.2-3.44-122.27-3.08a169.45,169.45,0,0,1-29.78-2.3s-8.76-12.63-8.87-17.07l82.12,6.79,12,1.76,24.56-1.5,13.33,1.5s16.38,2.66,25,0,50-4,55.58-4,39.24-3.17,44.56-14.78a11.64,11.64,0,0,1,2.64-3.62C716.79,326.59,716.79,326.75,716.79,326.92Z"></path><path class="cls-6" d="M677.22,213.93a42,42,0,0,1,9,4.44,14.6,14.6,0,0,1,5.76,6.78c3.34,8.06,10.63,25.93,12.23,32,1.7,6.5,9.41,50,12.24,66.06a21.17,21.17,0,0,1-1.19,11.52,38.61,38.61,0,0,1-23.47,22.35c-7.67,2.59-16.44,4.58-23.16,3.38-15.15-2.71-40-2.07-50.73,2.2s-107.2-3.44-122.27-3.08a169.45,169.45,0,0,1-29.78-2.3s-8.76-12.63-8.87-17.07,13.42-29.84,13.42-29.84"></path><polygon class="cls-10" points="572.33 223.35 564.62 231.58 561.07 233.91 555.39 222.39 567.92 215.18 572.33 223.35"></polygon><path class="cls-10" d="M617.35,238.06h-12L593,236l12.32-17.63-17.08,14.18-8.22-1-9.46-6.28-5.93,6.33L544,245.11h0l-10.7,7L500,251.29h0l-1.73,0c-1.41,2.1-3.14,4.76-5,7.79l26.14,11.81,51.69-.73a8.46,8.46,0,0,1-1.72-.88l-.43-.31,3.63,1.17,1.55-6.78,5-5,6.44-2.29H593l5.72,4.65,2.67,7.12,11.82,2.75,11.92-22.25,4.45-21.61Z"></path><polygon class="cls-10" points="616.22 272.46 642.66 279.67 646.61 270.45 640.06 267.1 616.22 272.46"></polygon><path class="cls-10" d="M660.6,243.17s-4.32,20-5.15,21.62L676,256.36l-10.29-44.88,4.84-1.44-1.67-15.92,8.48-10v53.19l5.35,16.48-1.23,34.12s-31.15-8.87-40.08-22.13Z"></path><path class="cls-10" d="M662.68,135.6s-3.52-20.24-5.52-27.77-6.87-28.27-20.36-25.72C620,85.29,607.06,69.92,607.06,69.92l4.49-5.15a47.62,47.62,0,0,0,12.55,6.48c8.68,2.88,17.18,4.86,19.8-5.11,0,0,24.8,21.64,27.6,64.45Z"></path><polygon class="cls-10" points="703.32 114.81 718.13 119.96 707.72 126.43 703.32 114.81"></polygon><path class="cls-10" d="M729.27,126.43s18.63-1,22.28-13.45c0,0-9.48,24.43-28.43,36.91l-7.56-14.29,12.23-5.8Z"></path><path class="cls-10" d="M503.81,213.27,500.7,245v.07l-2.35,1.07-6.12-18.71.21-11.38.46-24.25c.14-7.33,3.2-5.13,3.2-5.13Z"></path><path class="cls-7" d="M499.44,249.53l-1.16,1.71-15.68,3.39L469,274.26c2.36-5.15,3.25-11.37,3.6-17.77.16-2.94.26-5.89.32-8.74,4.65-6.2,10.89-11.46,16.53-17.32L494,233l4.31,13.18Z"></path><path class="cls-10" d="M470.5,280.59s-3.35,26.65-2.22,29.2L458.7,330S455.42,291.08,470.5,280.59Z"></path><path class="cls-10" d="M429.46,250.23,441,256.49,450,263l3.17,6.13s12.15.38,16.63-12.79c0,0,7.7,30.83-24.17,30.83l-8.93-25.48Z"></path><path class="cls-10" d="M475.3,224.55s15.11-5.7,14.84-39.39l-.65,45.27-14.19,15Z"></path><path class="cls-6" d="M471.86,177.2c6.67,6.67,8.11,24.15,5.44,35.67"></path><polygon class="cls-10" points="435.11 218.9 452.19 241.62 453.13 261.54 435.11 218.9"></polygon><path class="cls-10" d="M469.92,204.7c-4.11,9.68-11.67,18.74-16.48,23.93a81.67,81.67,0,0,1-12.87-15.76l.45-13,14.33,9.62,14.41-4.76Z"></path><circle class="cls-13" cx="360.87" cy="200" r="26.53"></circle><path class="cls-14" d="M334.34,120.39v53.07H307.8a26.54,26.54,0,0,1,0-53.07Z"></path><path class="cls-6" d="M334.34,120.39v53.07h26.53a26.54,26.54,0,1,0,0-53.07Z"></path><path class="cls-6" d="M334.34,173.47v53.06H307.8a26.53,26.53,0,0,1,0-53.06Z"></path><path class="cls-15" d="M334.34,226.54v53.07H307.8a26.54,26.54,0,0,1,0-53.07Z"></path><circle class="cls-6" cx="235.76" cy="199.69" r="7.96"></circle><path class="cls-16" d="M137.18,226.54H110.65a26.54,26.54,0,1,1,0-53.07h26.53a26.54,26.54,0,0,0,0,53.07Z"></path><path class="cls-15" d="M190.25,200a26.53,26.53,0,0,1-26.53,26.54H137.18a26.54,26.54,0,1,0,0-53.07h26.54A26.53,26.53,0,0,1,190.25,200Z"></path><path class="cls-6" d="M177,154.89H97.38a8,8,0,0,1,0-15.92H177a8,8,0,0,1,0,15.92Z"></path><line class="cls-6" x1="163.71" y1="261.04" x2="110.64" y2="261.04"></line><path class="cls-6" d="M90.08,245.11a22,22,0,0,1-.66-5.3V220.38a39.12,39.12,0,0,0,15.92,5.79v13.64a5.17,5.17,0,0,0,.61,2.45,5.29,5.29,0,0,0,4.69,2.85h53.07a5.32,5.32,0,0,0,5.31-5.3V226.17a39.12,39.12,0,0,0,15.92-5.79v19.43a22,22,0,0,1-.66,5.3"></path><path class="cls-6" d="M190.25,261H84.11a8,8,0,0,1,0-15.92H190.25a8,8,0,1,1,0,15.92Z"></path><circle class="cls-13" cx="137.18" cy="200" r="26.53"></circle></svg> 